<svg width="15.67346939444542" height="16" xmlns="http://www.w3.org/2000/svg" fill="currentColor" style=""><rect id="backgroundrect" width="100%" height="100%" x="0" y="0" fill="none" stroke="none" style="" class=""/>

 <g style="" class="currentLayer">
  <title>Layer 1</title>
  <path fill="#ffff00" style="color: rgb(255, 0, 255);" stroke-dashoffset="" fill-rule="nonzero" marker-start="" marker-mid="" marker-end="" id="svg_6" d="M0.7115287173755573,14.489349154903675 L8.000157942836534,1.7342480103469473 L15.288787168297524,14.489349154903675 L0.7115287173755573,14.489349154903675 z" class="selected" fill-opacity="1" transform="rotate(90, 8.00016, 8.1118)"/><path transform="rotate(90, 7.83673, 8)" id="svg_1" d="m7.7730246772170055,2.0167082521915436 a0.13,0.13 0 0 1 0.06400000000000013,-0.01600000000000003 a0.13,0.13 0 0 1 0.06300000000000013,0.01600000000000003 a0.1460000000000002,0.1460000000000002 0 0 1 0.05400000000000011,0.05700000000000008 l6.857,11.667 c0.03600000000000001,0.0600000000000001 0.035,0.12400000000000012 0.002000000000000004,0.18300000000000025 a0.1630000000000003,0.1630000000000003 0 0 1 -0.05400000000000011,0.0600000000000001 a0.11600000000000016,0.11600000000000016 0 0 1 -0.06600000000000013,0.017000000000000046 l-13.712,0 a0.11500000000000014,0.11500000000000014 0 0 1 -0.06600000000000013,-0.017000000000000046 a0.1630000000000003,0.1630000000000003 0 0 1 -0.05400000000000011,-0.0600000000000001 a0.1760000000000002,0.1760000000000002 0 0 1 0.002000000000000004,-0.18300000000000025 l6.856,-11.667 a0.1470000000000002,0.1470000000000002 0 0 1 0.05400000000000011,-0.05700000000000008 zm1.044,-0.45 a1.13,1.13 0 0 0 -1.96,0 l-6.857,11.667 c-0.457,0.778 0.09100000000000022,1.7670000000000003 0.98,1.7670000000000003 l13.713000000000001,0 c0.8890000000000011,0 1.4380000000000002,-0.99 0.98,-1.7670000000000003 l-6.856,-11.667 z" class="" fill="#000000" fill-opacity="1" opacity="1"/>
 <path fill="#ff00ff" style="color: rgb(255, 0, 255);" stroke-dashoffset="" fill-rule="nonzero" marker-start="" marker-mid="" marker-end="" id="svg_4" d="M4.878467997867235,8.007716133664944 L4.91928432769701,7.936287556462838 L4.960100657526785,8.007716133664944 L4.878467997867235,8.007716133664944 z"/></g>
</svg>